<?xml version="1.0" encoding="UTF-8" standalone="no"?>
<!-- Created with Inkscape (http://www.inkscape.org/) -->

<svg
   xmlns:dc="http://purl.org/dc/elements/1.1/"
   xmlns:cc="http://creativecommons.org/ns#"
   xmlns:rdf="http://www.w3.org/1999/02/22-rdf-syntax-ns#"
   xmlns:svg="http://www.w3.org/2000/svg"
   xmlns="http://www.w3.org/2000/svg"
   xmlns:sodipodi="http://sodipodi.sourceforge.net/DTD/sodipodi-0.dtd"
   xmlns:inkscape="http://www.inkscape.org/namespaces/inkscape"
   width="297.78378mm"
   height="69.3274mm"
   viewBox="0 0 297.78379 69.3274"
   version="1.1"
   id="svg8"
   inkscape:version="0.92.1 r15371"
   sodipodi:docname="logopath.svg">
  <defs
     id="defs2" />
  <sodipodi:namedview
     id="base"
     pagecolor="#ffffff"
     bordercolor="#666666"
     borderopacity="1.0"
     inkscape:pageopacity="0.0"
     inkscape:pageshadow="2"
     inkscape:zoom="0.35"
     inkscape:cx="701.51839"
     inkscape:cy="83.639066"
     inkscape:document-units="mm"
     inkscape:current-layer="flowRoot4900"
     showgrid="false"
     inkscape:pagecheckerboard="true"
     fit-margin-top="0"
     fit-margin-left="0"
     fit-margin-right="0"
     fit-margin-bottom="0"
     inkscape:window-width="1280"
     inkscape:window-height="748"
     inkscape:window-x="-8"
     inkscape:window-y="-8"
     inkscape:window-maximized="1" />
  <metadata
     id="metadata5">
    <rdf:RDF>
      <cc:Work
         rdf:about="">
        <dc:format>image/svg+xml</dc:format>
        <dc:type
           rdf:resource="http://purl.org/dc/dcmitype/StillImage" />
        <dc:title></dc:title>
      </cc:Work>
    </rdf:RDF>
  </metadata>
  <g
     inkscape:label="Layer 1"
     inkscape:groupmode="layer"
     id="layer1"
     transform="translate(37.065431,-12.433056)">
    <g
       aria-label="YoyoString"
       transform="scale(0.26458333)"
       style="font-style:normal;font-variant:normal;font-weight:normal;font-stretch:normal;font-size:192px;line-height:258.20001221px;font-family:Pacifico;-inkscape-font-specification:Pacifico;text-align:center;letter-spacing:0px;word-spacing:0px;writing-mode:lr-tb;text-orientation:upright;text-anchor:middle;fill:#000000;fill-opacity:1;stroke:#000000"
       id="flowRoot3680">
      <g
         id="g3719">
        <g
           aria-label="YoyoString"
           transform="translate(-194.90587,47.115364)"
           style="font-style:normal;font-variant:normal;font-weight:normal;font-stretch:normal;font-size:192px;line-height:1.25;font-family:Pacifico;-inkscape-font-specification:Pacifico;letter-spacing:0px;word-spacing:0px;fill:none;fill-opacity:1;stroke:#000000;stroke-width:6.61417341;stroke-miterlimit:4;stroke-dasharray:none"
           id="flowRoot4900">
          <path
             id="path4926"
             style="color:#000000;font-style:normal;font-variant:normal;font-weight:normal;font-stretch:normal;font-size:medium;line-height:1.25;font-family:Pacifico;-inkscape-font-specification:Pacifico;font-variant-ligatures:normal;font-variant-position:normal;font-variant-caps:normal;font-variant-numeric:normal;font-variant-alternates:normal;font-feature-settings:normal;text-indent:0;text-align:start;text-decoration:none;text-decoration-line:none;text-decoration-style:solid;text-decoration-color:#000000;letter-spacing:15.58002663px;word-spacing:0px;text-transform:none;writing-mode:lr-tb;direction:ltr;text-orientation:mixed;dominant-baseline:auto;baseline-shift:baseline;text-anchor:start;white-space:normal;shape-padding:0;clip-rule:nonzero;display:inline;overflow:visible;visibility:visible;opacity:1;isolation:auto;mix-blend-mode:normal;color-interpolation:sRGB;color-interpolation-filters:linearRGB;solid-color:#000000;solid-opacity:1;vector-effect:none;fill:none;fill-opacity:1;fill-rule:nonzero;stroke:#000000;stroke-width:3.96850399;stroke-linecap:butt;stroke-linejoin:miter;stroke-miterlimit:4;stroke-dasharray:none;stroke-dashoffset:0;stroke-opacity:1;color-rendering:auto;image-rendering:auto;shape-rendering:auto;text-rendering:auto;enable-background:accumulate"
             d="m 178.73438,157.66406 -5.12696,1.7793 c -15.71843,5.45599 -27.66188,11.51125 -35.89453,18.45117 -8.23265,6.93992 -12.79101,15.05025 -12.79101,23.8418 0,4.25329 1.40226,8.17524 4.16601,11.10156 l 0.002,0.002 0.002,0.002 c 2.97692,3.1423 7.24947,4.68164 12,4.68164 9.93491,0 18.43412,-4.99454 24.45117,-14.05469 6.01337,-9.05461 9.95179,-22.05246 12.23047,-39.08984 z m -8.22657,10.03321 c -2.27428,14.2549 -5.82364,25.11009 -10.47461,32.11328 -5.11895,7.70784 -11.08432,11.09765 -18.9414,11.09765 -3.43882,0 -5.56473,-0.89223 -7.19532,-2.61132 l -0.002,-0.002 c -6.3e-4,-6.6e-4 -10e-4,-0.001 -0.002,-0.002 -1.58565,-1.68078 -2.35742,-3.64429 -2.35742,-6.55664 0,-6.56845 3.18605,-12.66712 10.4414,-18.78321 6.362,-5.363 16.01038,-10.49648 28.53125,-15.25585 z M 109.60352,4.8925781 c -18.662507,0 -35.089593,9.7506839 -48.560551,28.2402339 l -0.0059,0.0098 -0.0078,0.0078 c -3.826101,5.329211 -5.996094,10.405458 -5.996094,15.36914 0,2.824449 0.88912,5.567815 2.537109,7.875 l 0.07813,0.109375 0.08789,0.103516 c 1.854881,2.192131 4.508597,3.667969 7.324219,3.667969 3.408052,0 6.444031,-2.047508 8.615234,-4.994141 5.49705,-7.368603 10.628066,-12.69526 15.201172,-15.978516 l 0.0059,-0.0039 0.0059,-0.0059 c 4.812511,-3.489071 8.698954,-4.9375 11.308601,-4.9375 1.65295,0 2.17386,0.323945 2.70703,1.015625 0.53317,0.69168 1.08984,2.245447 1.08984,4.892578 0,3.820409 -0.48158,8.293541 -1.47461,13.382812 l -0.008,0.03906 -0.008,0.03711 c -0.88185,5.165089 -2.28152,12.171128 -4.195319,20.97461 -2.178367,9.739557 -3.784582,17.508036 -4.822266,23.34375 -4.98e-4,0.0027 -0.0015,0.0051 -0.002,0.0078 -1.66e-4,9.36e-4 1.66e-4,0.003 0,0.0039 -1.051721,5.78787 -1.587891,11.16001 -1.587891,16.13086 0,11.22167 3.116459,20.81868 9.427736,28.25196 l 0.01,0.0137 0.01,0.0117 c 6.44216,7.44427 15.9778,11.12695 27.65234,11.12695 12.26716,0 23.55887,-4.24562 33.41602,-12.48242 5.41838,-4.52769 10.19195,-10.37987 14.45898,-17.30274 l -2.29492,16.18165 c -23.66935,7.98582 -41.70048,17.13071 -53.89844,27.77148 -12.55893,10.95566 -19.17968,23.96961 -19.17968,38.39648 0,8.85141 3.34564,16.55529 9.75,22.24805 6.62522,5.9029 15.79858,8.70703 26.96484,8.70703 16.83315,0 31.25209,-6.58881 42.41602,-19.36133 11.38683,-12.75188 18.6599,-32.00312 22.29687,-57.59179 l 0.004,-0.0293 0.28711,-2.29883 c 10.50537,-2.4705 21.14352,-4.76544 31.98632,-6.79101 l -0.0156,0.002 c 3.48216,-0.63312 6.54355,-2.4641 8.33789,-5.31641 1.7858,-2.76837 2.63477,-6.07878 2.63477,-9.64843 0,-3.24192 -0.58203,-6.10535 -2.32227,-8.35743 -1.74024,-2.25207 -4.62438,-3.39843 -7.51367,-3.39843 -1.71973,0 -3.10648,0.0895 -4.50195,0.55468 l 0.40625,-0.10742 c -8.69794,1.71811 -16.96155,3.6608 -24.95704,5.74024 1.17317,-8.28361 2.3464,-16.53113 3.51954,-24.63672 l 0.006,-0.041 c 1.53643,-9.732363 2.94542,-19.211352 4.22656,-28.435549 l -0.004,0.03516 c 2.30553,-15.370205 4.80149,-32.592765 7.49024,-51.669922 0.16541,-1.157908 0.22656,-2.48737 0.22656,-4.115234 0,-5.031181 -1.31059,-9.400434 -4.33008,-12.4199219 -3.01949,-3.0194878 -7.38679,-4.328125 -12.41797,-4.328125 -4.95057,0 -9.33159,1.4886836 -12.34961,4.6523438 -3.12734,3.1482351 -4.65365,7.8298371 -5.33594,13.8339841 -2.5373,22.200377 -6.72034,40.887948 -12.47656,56.029297 l -0.006,0.01172 -0.004,0.01172 c -5.66324,15.227795 -12.05012,26.436697 -18.88086,33.626947 h -0.002 c -6.8026,7.16703 -13.01313,10.29883 -18.7207,10.29883 -5.22107,0 -8.0884,-1.24108 -9.53711,-3.01172 -1.51091,-1.84666 -2.70898,-5.78294 -2.70898,-11.92187 0,-2.22929 0.3476,-5.24977 1.08789,-8.951172 l 0.002,-0.0098 0.002,-0.0098 c 0.75288,-3.889842 1.89679,-9.039346 3.42579,-15.410156 l 0.006,-0.01953 0.004,-0.02148 c 2.4389,-10.782487 4.2398,-19.652819 5.4082,-26.660156 1.30971,-7.211477 1.96875,-14.249549 1.96875,-21.109375 0,-9.742348 -2.40596,-17.67027 -7.61132,-23.183594 -5.01788,-5.4484348 -12.18975,-8.1562499 -20.65625,-8.1562499 z m 0,6.6152339 c 7.13935,0 12.12136,2.022751 15.80664,6.033204 l 0.0156,0.01758 0.0156,0.01758 c 3.74406,3.958014 5.8164,9.97612 5.8164,18.65625 0,6.444007 -0.62,13.091646 -1.86719,19.951172 l -0.004,0.02539 -0.004,0.02344 c -1.13567,6.814039 -2.91669,15.597687 -5.33984,26.310547 -1.53478,6.397005 -2.69171,11.599858 -3.47266,15.632812 -5.7e-4,0.0028 -0.001,0.005 -0.002,0.0078 -5.8e-4,0.003 -0.001,0.0087 -0.002,0.01172 -0.79298,3.969383 -1.21289,7.342943 -1.21289,10.228513 0,6.91707 1.10603,12.32599 4.20312,16.11133 3.15929,3.86135 8.35732,5.43554 14.65625,5.43554 8.11643,0 15.98418,-4.42045 23.51758,-12.35742 7.76126,-8.16975 14.42839,-20.128758 20.28515,-35.876947 6.01516,-15.829932 10.27788,-35.021209 12.85938,-57.609375 v -0.002 c 0.59544,-5.239899 2.0092,-8.479898 3.46875,-9.939453 l 0.0312,-0.03125 0.0293,-0.03125 c 1.58902,-1.6773 3.84801,-2.615235 7.58398,-2.615235 3.92882,0 6.28168,0.930113 7.74219,2.390626 1.46051,1.460512 2.39062,3.813368 2.39062,7.742187 0,1.444136 -0.0676,2.545595 -0.1582,3.179687 v 0.0039 l -0.002,0.002 c -2.6869,19.06419 -5.18022,36.271135 -7.48242,51.61914 l -0.004,0.01758 -0.002,0.01758 c -1.27702,9.194509 -2.68187,18.646605 -4.21485,28.35547 l -0.004,0.0215 -0.002,0.0215 c -1.40859,9.73207 -2.81801,19.5922 -4.22656,29.58007 l -0.70117,4.98047 4.84961,-1.33007 c 9.26012,-2.53702 19.03964,-4.82359 29.33594,-6.85743 l 0.20507,-0.041 0.19922,-0.0664 c 0.14053,-0.0468 1.05789,-0.21289 2.41016,-0.21289 1.46271,0 1.84353,0.26224 2.2793,0.82617 0.43576,0.56393 0.9414,1.92437 0.9414,4.31446 0,2.56675 -0.55768,4.49415 -1.58008,6.07421 l -0.0156,0.0234 -0.0137,0.0215 c -0.76796,1.22873 -1.79242,1.95089 -3.93164,2.33984 h -0.008 l -0.008,0.002 c -11.70047,2.18581 -23.20898,4.62911 -34.52734,7.33008 l -2.23047,0.53125 -0.85352,6.84375 c -3.53026,24.82383 -10.58876,42.80748 -20.69531,54.11719 l -0.0117,0.0156 -0.0117,0.0137 c -10.08279,11.54054 -22.2831,17.10742 -37.44531,17.10742 -10.07946,0 -17.41789,-2.44257 -22.56836,-7.03321 l -0.002,-0.002 h -0.002 c -5.11564,-4.54724 -7.52929,-10.02809 -7.52929,-17.30469 0,-12.45312 5.41095,-23.37577 16.91601,-33.41211 11.51201,-10.04239 29.38416,-19.21055 53.58008,-27.1914 l 1.95117,-0.64258 4.12891,-29.10547 -0.0137,0.0781 c 0.5169,-3.10139 1.16009,-7.20919 1.92969,-12.33985 l -6.36329,-1.66406 c -5.87858,15.50945 -13.30247,26.83133 -22.06835,34.15625 -8.83085,7.3792 -18.40294,10.94141 -29.17579,10.94141 -10.33581,0 -17.5632,-2.97066 -22.64062,-8.83204 -5.2008,-6.13258 -7.843751,-13.93838 -7.843751,-23.95703 0,-4.49765 0.487607,-9.48751 1.482422,-14.95898 l 0.002,-0.0078 v -0.0059 c 1.009499,-5.678431 2.601719,-13.389692 4.771489,-23.089844 l 0.002,-0.0098 0.002,-0.0078 c 1.92301,-8.845809 3.33382,-15.904581 4.24414,-21.232422 1.04921,-5.388743 1.5918,-10.247974 1.5918,-14.607422 0,-3.496869 -0.62806,-6.549368 -2.46289,-8.929688 -1.83483,-2.38032 -4.86422,-3.59375 -7.94726,-3.59375 -4.814371,0 -9.761972,2.26429 -15.189461,6.199219 -5.403471,3.882134 -10.888637,9.683548 -16.646484,17.404297 l -0.0059,0.0078 -0.0059,0.0059 c -1.412796,1.917367 -2.345114,2.302734 -3.289062,2.302734 -0.735696,0 -1.284348,-0.220655 -2.171875,-1.232422 -0.850943,-1.233271 -1.240234,-2.429365 -1.240234,-3.908203 0,-2.970553 1.412372,-6.852795 4.75,-11.503906 C 79.037121,19.673954 93.19805,11.507812 109.60352,11.507812 Z m 176.20117,86.888672 c -6.19481,0 -11.69294,3.293656 -15.58399,8.914066 l -0.004,0.006 -0.006,0.008 c -3.8624,5.64504 -5.57032,13.23407 -5.57032,22.60351 0,7.46091 1.39162,13.55196 4.66211,18.06836 l 0.0215,0.0293 0.0215,0.0293 c 3.23889,4.26943 7.61338,6.87695 12.42774,6.87695 4.98126,0 9.56582,-2.20496 13.01172,-6.08789 3.63461,-3.95199 5.86394,-9.39492 6.95507,-16.07813 l 0.33985,-2.08593 -1.74805,-1.18555 c -3.50484,-2.37425 -6.15688,-5.41189 -8.09375,-9.27344 -1.83277,-3.90984 -2.74219,-7.98875 -2.74219,-12.37304 0,-1.84131 0.17233,-3.68146 0.51953,-5.53321 L 290.75,98.396484 Z m -2.6875,6.927736 c -0.059,0.84183 -0.23633,1.68103 -0.23633,2.52344 0,5.32815 1.1366,10.45093 3.38672,15.23242 l 0.0176,0.0352 0.0176,0.0352 c 2.04774,4.09548 4.90685,7.55041 8.41407,10.3457 -1.02775,4.79224 -2.61837,8.51348 -4.81446,10.89258 l -0.0234,0.0254 -0.0234,0.0273 c -2.43969,2.75791 -4.8817,3.875 -8.08203,3.875 -2.60253,0 -4.75337,-1.10736 -7.13867,-4.24219 -2.08976,-2.91009 -3.37891,-7.55544 -3.37891,-14.14649 0,-8.54057 1.61669,-14.7703 4.4043,-18.85351 l 0.004,-0.004 c 2.31195,-3.33787 4.6658,-5.09595 7.45313,-5.74609 z m 3.45508,-27.279298 c -8.53515,0 -16.47628,2.386931 -23.51563,7.076172 -7.03792,4.560682 -12.57385,11.025202 -16.50781,19.156246 -0.001,0.003 -0.003,0.005 -0.004,0.008 -3.9574,8.05462 -5.9043,17.22572 -5.9043,27.37109 0,7.60107 1.50643,14.75887 4.5254,21.3457 3.04301,6.63931 7.56015,12.08363 13.41601,16.12696 l 0.0137,0.0117 0.0156,0.01 c 6.09517,4.1107 13.41219,6.13281 21.625,6.13281 9.86431,0 18.89999,-3.577 26.58594,-10.43945 l 0.0137,-0.0117 0.0117,-0.0117 c 7.14885,-6.51056 11.99735,-15.09727 14.71289,-25.32226 8.51095,-0.54929 16.50122,-1.95726 23.79297,-4.49805 2.64591,-0.82461 4.86826,-2.76262 6.13476,-5.25195 1.26826,-2.49278 1.75195,-5.43875 1.75195,-8.84375 0,-2.94583 -0.5086,-5.61698 -1.74023,-7.9043 -1.30116,-2.41644 -3.98559,-4.23437 -6.75195,-4.23438 -1.13546,0 -2.27751,0.17925 -3.49024,0.48243 l -0.0176,0.004 -0.0156,0.004 c -6.92436,1.81099 -12.79487,2.83555 -17.96289,3.37109 -1.49766,-8.99696 -5.0229,-16.897642 -10.79297,-23.291012 -6.47711,-7.447359 -15.41227,-11.291016 -25.89648,-11.291016 z m 0,6.613281 c 8.95924,0 15.62874,2.934005 20.92578,9.037109 l 0.0234,0.02539 0.0215,0.02539 c 5.5341,6.122823 8.76149,13.622588 9.72461,22.892578 l 0.32812,3.16016 3.17188,-0.20313 c 6.30672,-0.40255 13.64798,-1.72391 22.0957,-3.93164 0.83528,-0.20882 1.48422,-0.28515 1.88477,-0.28515 0.56163,0 0.43689,-0.15376 0.92773,0.75781 0.56037,1.04068 0.94922,2.5934 0.94922,4.76758 0,2.73899 -0.44351,4.68853 -1.03125,5.84375 -0.58774,1.15522 -1.14774,1.61205 -2.20898,1.9414 l -0.0566,0.0176 -0.0566,0.0195 c -7.33703,2.56797 -15.45518,4.05355 -24.38867,4.42578 l -2.52929,0.10547 -0.5586,2.46875 c -2.30726,10.20055 -6.75621,18.14298 -13.38281,24.18555 -6.64854,5.93421 -13.86637,8.75781 -22.17578,8.75781 -7.14368,0 -13.00662,-1.68992 -17.91797,-5 -0.002,-0.002 -0.005,-0.002 -0.008,-0.004 -4.88101,-3.37794 -8.54722,-7.78289 -11.13086,-13.41993 -2.61304,-5.70117 -3.92383,-11.85491 -3.92383,-18.58984 0,-9.30736 1.76449,-17.41344 5.22852,-24.46094 l 0.006,-0.01 0.004,-0.01 c 3.48484,-7.209997 8.17915,-12.636833 14.17969,-16.519532 l 0.0176,-0.01172 0.0195,-0.01367 c 6.01336,-4.008906 12.52985,-5.972656 19.86133,-5.972656 z m 104.76757,97.980467 -7.57617,6.39453 c -10.00582,8.44648 -17.37694,16.1655 -22.1289,23.36133 l -0.0215,0.0293 -0.0176,0.0293 c -4.54817,7.22357 -7.03711,13.75354 -7.03711,19.81055 0,2.56507 0.44374,4.9242 1.55469,6.96094 l 0.0547,0.0977 0.0586,0.0937 c 1.47043,2.31066 4.28723,3.64257 7.01563,3.64257 2.87874,0 5.33318,-1.58315 7.46679,-3.79297 2.13362,-2.20981 4.13007,-5.21487 6.20118,-9.08984 4.25478,-7.96057 8.21224,-20.46133 12.21093,-37.875 z M 379.7168,201.8418 c -2.94914,10.96904 -5.88298,20.05536 -8.64063,25.21484 -1.89689,3.54903 -3.67462,6.11305 -5.125,7.61524 -1.45038,1.50218 -2.38772,1.77343 -2.70898,1.77343 -1.01155,0 -1.10874,-0.10215 -1.35938,-0.49414 -0.40318,-0.7823 -0.71094,-1.96267 -0.71093,-3.6875 -10e-6,-4.1756 1.85959,-9.66704 6,-16.25195 2.80797,-4.24636 7.29562,-9.08524 12.54492,-14.16992 z M 373.60938,78.236328 c -5.35946,0 -9.65782,0.795296 -12.88086,3.123047 -3.04721,2.200761 -5.15325,5.62185 -6.57618,9.890625 l -0.002,0.0078 -0.002,0.0059 c -2.99148,9.10448 -5.14913,17.78637 -6.46094,26.05078 -1.31236,8.14044 -1.96094,17.07904 -1.96094,26.82227 0,8.43384 1.93103,15.80181 5.93164,21.80273 l 0.0254,0.0371 0.0254,0.0371 c 4.1777,5.9064 10.14383,9.26953 16.90821,9.26953 6.13968,0 11.92797,-2.93069 16.96289,-8.10547 l 0.0156,-0.0156 0.0137,-0.0156 c 0.65847,-0.69505 1.23338,-1.52508 1.84765,-2.29101 l -0.25195,1.93164 c -13.20027,10.1819 -23.66421,19.28958 -31.17774,27.3125 l -0.0176,0.0195 -0.0195,0.0195 c -7.56629,8.34902 -12.88535,15.79064 -15.92578,22.5625 l -0.0117,0.0254 -0.0117,0.0273 c -2.83881,6.62388 -4.29883,13.22583 -4.29883,19.73437 0,7.20942 2.39925,13.50075 7.13281,18.09766 4.71528,4.70528 11.04339,7.09765 18.25391,7.09765 13.53215,0 24.75619,-8.78426 32.88086,-24.61718 l 0.004,-0.01 c 8.0243,-15.2753 14.36224,-35.9346 19.22852,-61.93555 l 35.73828,-24.00976 c 2.27278,-1.51519 4.10511,-3.37908 5.30078,-5.59961 1.28198,-2.38082 1.74023,-5.20097 1.74023,-8.48047 0,-2.85182 -0.62021,-5.48699 -2.04296,-7.67383 -1.33263,-2.33362 -3.9377,-4.08008 -6.64063,-4.08008 -2.16189,0 -4.16404,0.80303 -6.15039,2.02539 l -0.041,0.0273 -0.041,0.0273 c -7.3124,4.80815 -14.8226,10.11856 -22.43555,15.69727 l 3.70899,-22.9668 -0.01,0.0488 c 1.6668,-9.42383 2.91873,-16.90035 3.75781,-22.451175 0.83908,-5.550825 1.28516,-8.977162 1.28516,-11.150391 0,-2.500661 -1.05944,-5.163326 -3.19922,-6.589844 -2.23385,-1.489233 -4.74694,-1.708984 -7.97851,-1.708984 -4.65827,0 -8.61316,0.884551 -11.60938,3.175781 l -0.0391,0.03125 -0.0371,0.0293 c -2.80492,2.278996 -4.58397,5.715254 -5.71875,9.970703 -3.0426,11.28182 -6.20363,20.74539 -9.44727,28.35547 l -0.008,0.0215 -0.01,0.0215 c -3.13718,7.65474 -6.14178,13.27461 -8.77929,16.71484 l -0.0215,0.0273 -0.0215,0.0293 c -1.30202,1.77548 -2.46033,3.02046 -3.30469,3.70508 -0.84436,0.68462 -1.27517,0.70312 -1.13281,0.70312 -0.34663,0 0.0916,0.28191 -0.12891,-0.11718 -0.22055,-0.39909 -0.5957,-1.74565 -0.5957,-3.87305 0,-2.79641 0.35946,-6.55717 1.10937,-11.18164 v -0.008 l 0.002,-0.006 c 0.76046,-4.81626 1.64841,-9.82901 2.66406,-15.03516 l 0.004,-0.0156 c 0.74969,-3.74644 1.75441,-7.96108 3.01757,-12.634768 l 0.0137,-0.04687 0.01,-0.04687 c 0.70904,-2.965088 1.24463,-5.326589 1.60938,-7.117188 0.36475,-1.790598 0.59375,-2.749657 0.59375,-4.019531 0,-2.480582 -1.00315,-5.039742 -2.9668,-6.595703 -2.13452,-1.804056 -4.71253,-2.087891 -7.82812,-2.087891 z m 0,6.615234 c 2.46524,0 3.68865,0.618685 3.58203,0.525391 l 0.0723,0.0625 0.0762,0.05859 c 0.30863,0.240039 0.45118,0.338536 0.45118,1.421875 0,-0.245874 -0.12365,1.033817 -0.4629,2.699219 -0.33924,1.665401 -0.85963,3.977478 -1.55859,6.90039 -1.28233,4.751823 -2.31924,9.082543 -3.09961,12.984383 v 0.008 l -0.002,0.008 c -1.0301,5.27926 -1.93276,10.36884 -2.70703,15.27149 -3.8e-4,0.002 3.7e-4,0.004 0,0.006 -4e-4,0.003 -0.002,0.005 -0.002,0.008 -0.78435,4.84029 -1.19336,8.88272 -1.19336,12.22656 0,2.7366 0.29843,5.03936 1.42188,7.07227 1.12345,2.0329 3.57659,3.53125 5.91797,3.53125 2.06236,0 3.77519,-0.94236 5.29883,-2.17774 1.5151,-1.22846 2.94265,-2.8581 4.44726,-4.90625 3.24127,-4.23499 6.37319,-10.2471 9.62696,-18.18359 3.40796,-7.99969 6.64249,-17.72348 9.74023,-29.210944 l 0.002,-0.0039 v -0.0039 c 0.90529,-3.394817 2.18496,-5.44254 3.46485,-6.5 1.36182,-1.025184 3.78738,-1.796875 7.54883,-1.796876 2.65642,1e-6 4.23844,0.548937 4.30859,0.595704 0.16422,0.109482 0.25586,0.0046 0.25586,1.08789 0,1.026772 -0.38602,4.704938 -1.21094,10.16211 -0.82492,5.457176 -2.06927,12.894946 -3.73047,22.287116 l -0.004,0.0234 -6.30664,39.05078 6.56445,-4.94531 c 9.77923,-7.36617 19.29668,-14.09106 28.55273,-20.17969 1.33385,-0.81821 2.27717,-1.04297 2.67383,-1.04297 0.56164,0 0.43689,-0.15375 0.92773,0.75782 l 0.0742,0.13672 0.0859,0.1289 c 0.57715,0.86573 0.98047,2.14934 0.98047,4.11719 0,2.6085 -0.4392,4.39852 -0.94922,5.3457 -0.59633,1.10747 -1.57926,2.18566 -3.14648,3.23047 l -0.004,0.004 -38.02539,25.54883 -0.25195,1.37109 c -4.82648,26.2916 -11.17996,46.81359 -18.875,61.45898 l -0.008,0.0137 -0.008,0.0156 c -7.49009,14.61182 -16.23062,21.04883 -27.00976,21.04883 -5.83633,0 -10.12281,-1.69898 -13.59766,-5.17383 l -0.0176,-0.0195 -0.0195,-0.0176 c -3.44504,-3.33738 -5.13672,-7.53282 -5.13672,-13.36914 0,-5.51843 1.22531,-11.19898 3.75781,-17.11328 2.59264,-5.75951 7.50325,-12.76099 14.75782,-20.76953 7.35884,-7.85518 17.85543,-17.04177 31.45117,-27.46094 l 1.0918,-0.83398 0.75195,-5.7793 c 0.91129,-4.84197 1.92641,-11.5667 3.07226,-20.35156 l -6.46484,-1.3125 c -2.4612,8.86033 -5.8604,15.38975 -9.95703,19.71875 -4.17294,4.28102 -8.10802,6.08398 -12.20117,6.08398 -4.7407,0 -8.23881,-1.88116 -11.47657,-6.43945 -3.15145,-4.74498 -4.80078,-10.67474 -4.80078,-18.09375 0,-9.45302 0.63229,-18.0483 1.87891,-25.77734 v -0.004 -0.006 c 1.24753,-7.85942 3.31488,-16.19749 6.20898,-25.007815 1.13708,-3.411225 2.61304,-5.493855 4.17383,-6.621094 1.38496,-1.000249 4.38327,-1.869141 9.00782,-1.869141 z m 121.85546,13.544922 c -6.1948,0 -11.69293,3.293656 -15.58398,8.914066 l -0.004,0.006 -0.006,0.008 c -3.86239,5.64504 -5.57031,13.23407 -5.57031,22.60351 0,7.46091 1.39161,13.55196 4.66211,18.06836 l 0.0215,0.0293 0.0215,0.0293 c 3.23888,4.26943 7.61142,6.87695 12.42578,6.87695 4.98126,0 9.56778,-2.20496 13.01367,-6.08789 3.63461,-3.95199 5.86394,-9.39492 6.95508,-16.07813 l 0.33984,-2.08593 -1.74804,-1.18555 c -3.50484,-2.37425 -6.15688,-5.41189 -8.09375,-9.27344 -1.83278,-3.90984 -2.74219,-7.98875 -2.74219,-12.37304 0,-1.84131 0.17233,-3.68146 0.51953,-5.53321 l 0.73438,-3.917966 z m -2.6875,6.927736 c -0.059,0.84183 -0.23632,1.68103 -0.23632,2.52344 0,5.32815 1.1366,10.45093 3.38671,15.23242 l 0.0176,0.0352 0.0176,0.0352 c 2.04774,4.09548 4.90685,7.55041 8.41406,10.3457 -1.02775,4.79224 -2.61836,8.51348 -4.81445,10.89258 l -0.0234,0.0254 -0.0234,0.0273 c -2.43969,2.75791 -4.88365,3.875 -8.08398,3.875 -2.60252,0 -4.75142,-1.10736 -7.13672,-4.24219 -2.08975,-2.91009 -3.3789,-7.55544 -3.3789,-14.14649 0,-8.54057 1.61668,-14.7703 4.40429,-18.85351 l 0.004,-0.004 c 2.31194,-3.33787 4.6658,-5.09595 7.45312,-5.74609 z m 3.45508,-27.279298 c -8.53218,0 -16.47224,2.386262 -23.50976,7.072266 -7.04075,4.560892 -12.57861,11.026825 -16.51368,19.160152 -10e-4,0.003 -0.003,0.005 -0.004,0.008 -3.95741,8.05462 -5.9043,17.22572 -5.9043,27.37109 0,7.60107 1.50643,14.75887 4.52539,21.3457 3.04302,6.63931 7.56016,12.08363 13.41602,16.12696 l 0.0137,0.0117 0.0156,0.01 c 6.09518,4.1107 13.4122,6.13281 21.625,6.13281 9.86432,0 18.9,-3.577 26.58594,-10.43945 l 0.0137,-0.0117 0.0117,-0.0117 c 7.14885,-6.51056 11.99736,-15.09727 14.71289,-25.32226 8.51096,-0.54929 16.50122,-1.95726 23.79297,-4.49805 2.64591,-0.82461 4.86827,-2.76262 6.13477,-5.25195 1.26825,-2.49278 1.75195,-5.43875 1.75195,-8.84375 0,-2.94583 -0.5086,-5.61698 -1.74023,-7.9043 -1.30116,-2.41644 -3.98559,-4.23437 -6.75196,-4.23438 -1.13545,0 -2.27751,0.17925 -3.49023,0.48243 l -0.0176,0.004 -0.0176,0.004 c -6.92436,1.81099 -12.79291,2.83555 -17.96093,3.37109 -1.49767,-8.99696 -5.0229,-16.897642 -10.79297,-23.291012 -6.47712,-7.447362 -15.41227,-11.291016 -25.89649,-11.291016 z m 0,6.613281 c 8.95925,0 15.62875,2.934005 20.92578,9.037109 l 0.0234,0.02539 0.0215,0.02539 c 5.5341,6.122823 8.7615,13.622588 9.72461,22.892578 l 0.32813,3.16016 3.17187,-0.20313 c 6.30673,-0.40255 13.64798,-1.72391 22.09571,-3.93164 0.83527,-0.20882 1.48422,-0.28515 1.88476,-0.28515 0.56164,0 0.4369,-0.15376 0.92774,0.75781 0.56036,1.04068 0.94922,2.5934 0.94922,4.76758 0,2.73899 -0.44351,4.68853 -1.03125,5.84375 -0.58775,1.15522 -1.14775,1.61205 -2.20899,1.9414 l -0.0566,0.0176 -0.0566,0.0195 c -7.33704,2.56797 -15.45518,4.05355 -24.38867,4.42578 l -2.5293,0.10547 -0.55859,2.46875 c -2.30727,10.20055 -6.75621,18.14298 -13.38281,24.18555 -6.64855,5.93421 -13.86638,8.75781 -22.17579,8.75781 -7.14085,0 -13.00389,-1.6886 -17.91406,-4.99609 -4.88686,-3.379 -8.55687,-7.7862 -11.14258,-13.42774 -2.61303,-5.70117 -3.92382,-11.85491 -3.92382,-18.58984 0,-9.30736 1.76449,-17.41344 5.22851,-24.46094 l 0.004,-0.01 0.006,-0.01 c 3.48483,-7.209997 8.17915,-12.636833 14.17968,-16.519532 l 0.0176,-0.01172 0.0195,-0.01367 c 6.01336,-4.008906 12.52985,-5.972656 19.86133,-5.972656 z M 631.07812,4.7011719 c -12.8927,0 -24.29092,2.0387315 -34.125,6.2148441 l -0.008,0.0039 -0.008,0.002 c -9.68114,4.168269 -17.3429,10.135205 -22.7168,17.851563 l -0.0117,0.01758 -0.0117,0.01563 c -5.23377,7.712916 -7.86719,16.635791 -7.86719,26.433593 0,9.375193 2.35379,17.572247 7.15625,24.210938 l 0.0234,0.03125 0.0234,0.03125 c 4.73234,6.219643 10.40318,11.215432 16.94727,14.896484 l 0.0117,0.0078 0.0137,0.0059 c 6.45985,3.559512 14.64029,7.253226 24.58789,11.128906 l -0.0293,-0.01 c 7.62412,3.04965 13.50846,5.64776 17.57032,7.74023 l 0.0352,0.0195 0.0371,0.0176 c 3.87517,1.87887 7.01414,4.23304 9.51953,7.08008 l 0.0234,0.0254 0.0215,0.0254 c 2.29036,2.49857 3.35547,5.26169 3.35547,8.90039 0,6.07032 -2.3048,10.23893 -7.68554,13.72071 -5.39947,3.36675 -13.28246,5.24414 -23.75977,5.24414 -10.19588,0 -17.94268,-1.41443 -23.14062,-3.89844 -4.94465,-2.42287 -6.76758,-5.23184 -6.76758,-9.88281 0,-1.30779 0.0578,-2.54064 0.17383,-3.70118 l -0.0469,0.31836 c 0.25858,-1.2929 0.40881,-2.16909 0.42578,-3.16406 0.3823,-2.08531 0.59766,-4.34346 0.59766,-6.89258 0,-3.66782 -1.63656,-7.13245 -4.46875,-9.46484 -2.83921,-2.33818 -6.52123,-3.44141 -10.54883,-3.44141 -5.60001,0 -10.54824,2.52738 -13.51953,7.0625 -2.95722,4.51365 -4.1875,10.51864 -4.1875,17.93946 0,14.15997 5.78946,25.47308 16.88867,32.54882 l 0.0117,0.008 0.0137,0.008 c 10.93848,6.83655 25.21002,10.10352 42.64844,10.10352 19.66299,0 35.69172,-4.13293 47.79883,-12.70313 l 0.002,-0.004 0.004,-0.002 c 12.30228,-8.74829 18.66992,-21.69389 18.66992,-37.63867 0,-8.63451 -2.31842,-16.22932 -7.00977,-22.34961 -4.36255,-5.855065 -9.7339,-10.541484 -16.02929,-13.962895 -6.0555,-3.291029 -13.9541,-6.912863 -23.75391,-10.910157 l -0.0156,-0.0059 -0.0137,-0.0059 c -8.00623,-3.177077 -14.20735,-5.903346 -18.52344,-8.123047 -4.14405,-2.131227 -7.56371,-4.75022 -10.34374,-7.871094 -2.43215,-2.866603 -3.60547,-6.122688 -3.60547,-10.306641 0,-6.425714 2.22879,-10.743031 7.20898,-14.173828 l 0.006,-0.0039 0.006,-0.0039 c 5.09488,-3.544268 12.85726,-5.552734 23.45508,-5.552734 7.41042,0 13.37559,1.339113 18.02148,3.832031 4.4754,2.401434 6.12695,5.073162 6.12695,9.373047 0,0.610614 -0.17748,3.155757 -0.55859,6.966796 l 0.041,-0.279296 c -0.4277,2.28105 -0.63282,4.724021 -0.63282,7.330078 0,3.667825 1.57782,7.136658 4.30469,9.703125 l 0.0332,0.0332 0.0352,0.03125 c 2.89495,2.573286 6.63816,3.90625 10.64453,3.90625 5.6894,0 10.68258,-2.855409 13.59571,-7.761719 2.9184,-4.915207 4.11132,-11.533229 4.11132,-19.929687 0,-8.822169 -2.6313,-16.613667 -7.86718,-22.847657 C 672.95348,16.472542 666.17458,11.965032 657.90039,9.1132812 649.70354,6.1608648 640.7439,4.7011719 631.07812,4.7011719 Z m 0,6.6132811 c 9.01179,0 17.19352,1.356135 24.60547,4.029297 l 0.0234,0.0078 0.0215,0.0078 c 7.32515,2.521775 12.94904,6.324218 17.14062,11.447266 l 0.0156,0.01758 0.0137,0.01563 c 4.22766,5.027493 6.32812,11.052725 6.32812,18.607422 0,7.731541 -1.23995,13.275941 -3.18554,16.552734 -1.95088,3.28569 -4.1256,4.525391 -7.90821,4.525391 -2.63104,0 -4.50743,-0.712117 -6.21093,-2.212891 -1.59388,-1.514221 -2.19336,-2.900264 -2.19336,-4.847656 0,-2.257943 0.17922,-4.296379 0.51953,-6.111328 l 0.0254,-0.138672 0.0156,-0.142578 c 0.3869,-3.868961 0.5918,-6.187615 0.5918,-7.625 0,-6.452116 -3.59464,-11.970607 -9.61524,-15.201172 -5.8501,-3.139082 -12.94286,-4.617188 -21.14843,-4.617188 -11.41177,0 -20.54059,2.086269 -27.22071,6.728516 -0.002,0.0011 -0.002,0.0028 -0.004,0.0039 -6.53682,4.505294 -10.06641,11.450898 -10.06641,19.615234 0,5.53122 1.76444,10.585987 5.20508,14.625 l 0.0234,0.02539 0.0234,0.02539 c 3.3599,3.779884 7.48245,6.913796 12.28711,9.384765 4.64392,2.388299 10.98761,5.165749 19.10938,8.388672 9.64113,3.933457 17.35031,7.478472 23.06445,10.583985 5.47174,2.973772 10.07619,6.98361 13.90235,12.125 l 0.0137,0.0195 0.0156,0.0195 c 3.74909,4.88517 5.65235,10.85132 5.65235,18.33789 0,14.26016 -5.15174,24.6089 -15.88477,32.24414 -10.67689,7.5578 -25.23955,11.48828 -43.97656,11.48828 -16.60336,0 -29.59033,-3.13074 -39.13086,-9.08984 -9.37149,-5.97982 -13.81836,-14.50489 -13.81836,-26.96289 0,-6.65919 1.20064,-11.4041 3.10742,-14.31446 1.89271,-2.88887 4.11434,-4.07422 7.98633,-4.07422 2.8844,0 4.83292,0.68777 6.3457,1.9336 1.51981,1.2516 2.0586,2.3952 2.0586,4.35937 0,2.39465 -0.18316,4.42944 -0.51172,6.07227 l -0.0644,0.32031 v 0.32813 c 0,-0.0392 -0.081,0.84221 -0.32032,2.03906 l -0.0312,0.1582 -0.0156,0.16211 c -0.13995,1.39946 -0.20899,2.85116 -0.20899,4.35938 0,6.86236 3.93484,12.62916 10.49414,15.83593 l 0.0137,0.006 0.0117,0.006 c 6.57802,3.14601 15.21215,4.54883 26.00391,4.54883 11.26907,0 20.40107,-1.95868 27.28906,-6.26367 l 0.0195,-0.0117 0.0215,-0.0137 c 6.89276,-4.45158 10.72851,-11.28896 10.72851,-19.29102 0,-5.05176 -1.74606,-9.69875 -5.07031,-13.33984 -3.11858,-3.5376 -7.00415,-6.41958 -11.55859,-8.63086 -4.38286,-2.25521 -10.37648,-4.89317 -18.08985,-7.978512 l -0.0137,-0.0059 -0.0137,-0.0059 c -9.76258,-3.803596 -17.70926,-7.405855 -23.79297,-10.757813 -10e-4,-6.23e-4 -0.003,-0.0013 -0.004,-0.002 -5.71735,-3.220714 -10.65147,-7.551647 -14.86524,-13.078125 -3.89173,-5.389642 -5.88672,-12.034248 -5.88672,-20.3125 0,-8.627833 2.22921,-16.083687 6.7168,-22.703125 4.6069,-6.606841 11.14168,-11.76965 19.87695,-15.533203 l 0.008,-0.002 c 0.002,-9.56e-4 0.004,-0.003 0.006,-0.0039 8.85112,-3.756154 19.33624,-5.683594 31.52539,-5.683594 z m 126.47657,7.210938 c -2.35633,0 -4.12487,1.349573 -5.53516,2.925781 -1.41029,1.576207 -2.65538,3.609584 -3.94922,6.197266 l -0.008,0.01758 -0.008,0.01563 c -2.46836,5.073844 -4.74439,11.896528 -6.95313,20.601562 l -0.004,0.01563 -0.004,0.01758 c -2.0801,8.580407 -3.82739,18.097414 -5.24805,28.558594 l -1.17578,8.666016 6.61719,-5.71875 c 7.85693,-6.791585 13.80592,-14.474572 17.73242,-23.001954 3.98132,-8.497685 6.06641,-16.372653 6.06641,-23.660156 0,-3.981525 -0.30751,-7.08808 -1.26367,-9.652344 -0.47809,-1.282131 -1.14237,-2.474865 -2.21485,-3.433593 -1.07247,-0.958728 -2.60965,-1.548828 -4.05273,-1.548828 z m -0.13281,6.908203 c 0.079,0.130505 0.0957,0.09875 0.20312,0.386718 0.45183,1.211737 0.84766,3.769369 0.84766,7.339844 0,6.020022 -1.75336,12.988811 -5.44727,20.869141 l -0.006,0.0098 -0.004,0.0098 c -2.23023,4.844995 -5.28689,9.378376 -9.02343,13.673828 1.05678,-6.307675 2.19837,-12.350747 3.52148,-17.8125 l 0.002,-0.0039 c 2.13979,-8.432464 4.34022,-14.911571 6.47657,-19.308594 1.13552,-2.268992 2.19093,-3.882277 2.95508,-4.736328 0.24032,-0.268602 0.33737,-0.319359 0.47461,-0.427734 z M 762.74023,0.09375 c -8.34034,0 -16.14506,4.0560406 -22.9707,11.427734 l -0.0117,0.01172 -0.0117,0.01172 c -6.62992,7.306441 -12.17868,16.948943 -16.76562,28.875 -4.27022,11.102578 -7.45762,23.292324 -9.66406,36.472656 h -8.17774 c -3.56591,0 -6.94232,1.292673 -9.05664,3.923828 -2.11432,2.631155 -2.88867,6.107852 -2.88867,10.134766 0,3.531317 0.69402,6.651504 2.7793,8.945312 l 0.0527,0.05859 0.0566,0.05469 c 2.47094,2.47093 5.96479,3.08203 10.20899,3.08203 h 4.07031 c -0.24649,4.62274 -0.46485,9.23534 -0.46485,13.77929 0,18.75978 3.27313,33.21156 10.4043,43.24414 7.13118,10.03259 18.23888,15.16797 32.07031,15.16797 9.01589,0 17.22299,-2.36675 24.29883,-7.08398 6.81516,-4.54344 13.06172,-10.3359 18.74024,-17.32617 3.06137,-3.5635 4.42773,-8.40584 4.42773,-14.03321 0,-3.0758 -0.57374,-5.82811 -2.05664,-8.09179 -1.36266,-2.2542 -3.98141,-3.85547 -6.625,-3.85547 -2.94887,0 -5.71621,1.53479 -7.69531,3.84375 -5.67198,6.55326 -10.55817,11.41438 -14.51172,14.52929 -3.67552,2.89587 -7.70747,4.28321 -12.54492,4.28321 -5.89854,0 -9.44442,-1.95164 -12.11719,-6.42578 -2.48178,-4.36321 -4.16016,-13.32745 -4.16016,-26.36328 0,-2.75532 0.14157,-7.13324 0.29883,-11.66797 h 20.20117 c 7.56857,0 13.54317,-1.07783 17.9961,-3.796882 4.45292,-2.719044 7.00781,-7.441107 7.00781,-12.759766 0,-2.838133 -0.35862,-5.376202 -2.3125,-7.330078 -1.78684,-1.786843 -4.22362,-2.3125 -6.75391,-2.3125 H 763.2402 c 13.2588,-13.998183 20.08594,-30.335685 20.08594,-48.533203 0,-7.640441 -1.65409,-14.279231 -5.14062,-19.6542969 C 774.63425,3.2301578 769.08736,0.09375 762.74023,0.09375 Z m 0,6.6132812 c 4.40488,0 7.30379,1.6005768 9.89649,5.5976568 2.65747,4.096933 4.07617,9.359128 4.07617,16.054687 0,18.915438 -7.75602,35.131829 -23.84375,49.363281 l -6.53906,5.785156 h 30.23437 c 1.56572,0 2.07102,0.369844 2.07617,0.375 -0.16187,-0.161876 0.375,0.626478 0.375,2.652344 0,3.513341 -1.06077,5.418278 -3.83984,7.115235 -2.77907,1.696956 -7.65339,2.826171 -14.54883,2.826171 h -26.60156 l -0.12695,3.175782 c -0.25699,6.424626 -0.38672,11.444686 -0.38672,15.107426 0,13.56639 1.38953,23.2769 5.04492,29.67382 l 0.0137,0.0254 0.0156,0.0254 c 3.72537,6.25862 10.16079,9.67968 17.81836,9.67968 6.17054,0 11.86619,-1.94298 16.63867,-5.70312 4.49186,-3.53905 9.5864,-8.65596 15.42969,-15.40821 l 0.004,-0.006 0.006,-0.006 c 1.0929,-1.27505 1.7827,-1.53321 2.67383,-1.53321 0.64643,0 0.53539,-0.10424 0.98242,0.66211 l 0.0508,0.0859 0.0547,0.082 c 0.53011,0.79517 0.98047,2.2339 0.98047,4.50195 0,4.59638 -1.0598,7.67656 -2.84375,9.74219 l -0.0332,0.0391 -0.0312,0.0391 c -5.31896,6.55592 -11.08943,11.88709 -17.31446,16.03711 -5.98015,3.98677 -12.75074,5.97265 -20.63086,5.97265 -12.28056,0 -20.75486,-4.0513 -26.67968,-12.38672 -5.92483,-8.33541 -9.18164,-21.43589 -9.18164,-39.41211 0,-5.55684 0.19107,-11.17857 0.57031,-16.86718 l 0.23437,-3.527348 h -11.02343 c -3.36295,0 -5.06855,-0.757272 -5.46485,-1.113281 -0.46668,-0.554326 -1.01953,-1.874533 -1.01953,-4.412109 0,-3.141087 0.66596,-5.039342 1.43164,-5.992188 0.76568,-0.952845 1.70631,-1.451172 3.90039,-1.451172 h 13.7793 l 0.43359,-2.802734 c 2.1447,-13.877485 5.41861,-26.511422 9.80274,-37.910156 4.36775,-11.356159 9.56356,-20.263828 15.46875,-26.779297 l 0.004,-0.0039 c 5.97298,-6.4492285 11.86304,-9.3046878 18.11328,-9.3046878 z m 57.92969,71.5292968 c -5.1441,0 -9.51999,0.953789 -12.95117,3.234375 -3.30393,2.153561 -5.59609,5.611477 -6.91016,9.845703 -4.83856,15.306654 -7.2539,31.456864 -7.2539,48.404294 0,11.45191 0.89183,19.86977 3.09179,25.73633 l 0.0117,0.0332 0.0137,0.0332 c 2.38329,5.95822 7.41507,9.75976 13.43945,9.75976 4.53158,0 8.53028,-1.2406 11.11914,-4.1914 l 0.002,-0.004 c 2.65338,-3.00899 4.26713,-7.46629 5.73047,-13.71875 1.87612,-7.62076 4.31001,-14.85374 7.29883,-21.70312 3.00431,-6.88488 5.98588,-12.31944 8.84961,-16.25977 l 0.004,-0.006 c 1.47892,-2.01053 2.76525,-3.42586 3.72852,-4.25586 -0.0427,0.8498 -0.087,1.77971 -0.2793,3.70313 l 0.0469,-0.32032 c -0.42558,2.12788 -0.64063,4.26773 -0.64063,6.40821 0,6.53504 2.03429,12.23546 6.1543,16.35547 l 0.0195,0.0215 0.0234,0.0195 c 4.33452,4.17972 10.50012,6.11133 17.8457,6.11133 5.90094,0 11.54571,-1.42937 16.74219,-4.23828 l 0.0137,-0.008 0.0117,-0.006 c 5.12709,-2.8334 9.62693,-6.23638 13.45313,-10.19922 l 0.008,-0.008 0.008,-0.008 c 3.22895,-3.39039 4.75195,-8.08414 4.75195,-13.41601 0,-2.85182 -0.6127,-5.47213 -2.11718,-7.59571 -1.37674,-2.20967 -3.95578,-3.77539 -6.56641,-3.77539 -2.81562,0 -5.43776,1.38112 -7.52148,3.46485 -5.38399,5.38398 -9.63462,7.47851 -11.48633,7.47851 -0.82835,0 -0.71431,-0.0235 -0.90821,-0.29492 -0.1939,-0.27146 -0.58398,-1.27089 -0.58398,-3.11719 0,-0.39811 0.4571,-3.88314 1.4707,-8.95117 l 0.006,-0.0312 0.006,-0.0332 c 1.16085,-6.44918 1.78125,-10.254469 1.78125,-12.681642 0,-4.711182 -1.23035,-8.837778 -4.08984,-11.697266 -2.85949,-2.859488 -6.98609,-4.089844 -11.69727,-4.089844 -4.99231,0 -10.20337,1.717524 -15.66406,4.857422 l -0.0156,0.0078 -0.0156,0.0098 c -5.53069,3.261688 -10.89781,8.498702 -16.31445,15.632813 -1.51515,1.995557 -2.97141,4.175787 -4.39063,6.472657 0.3624,-1.53355 0.58338,-2.70942 1.00195,-4.38477 l 0.0137,-0.0547 c 1.92896,-7.204088 2.98047,-11.552997 2.98046,-14.624994 10e-6,-2.421922 -0.89141,-5.077888 -3.09179,-6.453125 -2.07434,-1.296462 -4.29332,-1.462891 -7.12891,-1.462891 z m 0,6.615234 c 2.28441,0 3.64939,0.473493 3.62305,0.457032 -0.15238,-0.09524 -0.0176,-0.318329 -0.0176,0.84375 0,1.014535 -0.86794,5.876786 -2.76758,12.96875 l -0.006,0.02539 -0.008,0.02734 c -1.28944,5.157746 -2.32361,9.684466 -3.10547,13.593756 -0.80126,4.0063 -1.45134,8.84365 -1.9707,14.55664 l 6.38086,1.48437 c 4.14283,-10.79646 8.7588,-19.48553 13.7539,-26.06445 5.07372,-6.682445 9.94133,-11.297967 14.39063,-13.925785 4.77208,-2.741213 8.89999,-3.966797 12.35156,-3.966797 3.60882,0 5.72097,0.849879 7.02149,2.150391 1.30051,1.300512 2.15039,3.412666 2.15039,7.021485 0,0.900826 -0.53264,5.158954 -1.67578,11.509766 l 0.0137,-0.0625 c -1.0344,5.17197 -1.60157,8.08811 -1.60157,10.25 0,2.6337 0.41031,4.9924 1.81641,6.96094 1.4061,1.96854 3.91936,3.06641 6.29102,3.06641 5.31628,0 10.28209,-3.53795 16.16211,-9.41797 1.24427,-1.24428 2.07732,-1.52735 2.8457,-1.52735 0.64643,0 0.53734,-0.10228 0.98437,0.66407 l 0.084,0.14453 0.0977,0.13476 c 0.49127,0.67551 0.90234,1.84661 0.90234,3.81446 0,4.13586 -1.03649,6.86256 -2.92383,8.84765 -3.33402,3.45082 -7.27113,6.44323 -11.85742,8.98047 -4.27432,2.30966 -8.74222,3.43945 -13.5918,3.43945 -6.20583,0 -10.39727,-1.51775 -13.23047,-4.23632 -2.77885,-2.7894 -4.19726,-6.42776 -4.19726,-11.65625 0,-1.69953 0.16929,-3.39921 0.51172,-5.11133 l 0.0312,-0.1582 0.0156,-0.16016 c 0.2598,-2.59801 0.40039,-4.30271 0.40039,-5.51367 0,-1.40294 -0.17427,-2.81758 -1.10937,-4.17774 -0.93511,-1.36015 -2.80288,-2.20117 -4.3086,-2.20117 -2.20934,0 -3.91109,1.06769 -5.50195,2.41992 -1.59086,1.35223 -3.1483,3.15192 -4.8418,5.45508 l -0.006,0.008 -0.006,0.006 c -3.27761,4.50672 -6.43562,10.33139 -9.57226,17.51953 -3.15024,7.21929 -5.70534,14.82334 -7.66797,22.80469 l -0.004,0.0176 -0.004,0.0195 c -1.35215,5.77738 -3.06698,9.51054 -4.25196,10.85352 l -0.006,0.004 -0.004,0.006 c -0.99543,1.13763 -2.75135,1.94336 -6.15039,1.94336 -3.69014,0 -5.57158,-1.31779 -7.2793,-5.5625 -1.63508,-4.37829 -2.66211,-12.32983 -2.66211,-23.38672 0,-16.32625 2.3194,-31.78748 6.94922,-46.427735 l 0.004,-0.0078 0.002,-0.0098 c 0.98792,-3.183303 2.40498,-5.09634 4.21289,-6.271485 l 0.0156,-0.0098 0.0156,-0.0098 c 1.94213,-1.294752 4.98189,-2.132813 9.30078,-2.132813 z M 920.9375,78.236328 c -4.62486,0 -8.43746,0.754268 -11.28125,3.029297 -2.78588,2.228707 -4.47045,5.678137 -5.72266,10.126953 -8.6e-4,0.0031 -0.003,0.0048 -0.004,0.0078 -2.34088,7.939548 -4.28318,16.502312 -5.83594,25.689452 l -0.004,0.0176 -0.004,0.0195 c -1.42487,9.06736 -2.15235,16.56429 -2.15235,22.59375 0,10.14864 1.92794,18.60445 6.07813,25.1875 l 0.0137,0.0215 0.0137,0.0215 c 4.437,6.80339 11.90963,10.33203 21.00977,10.33203 12.54654,0 25.08552,-8.58317 38.04101,-24.40429 3.06512,-3.56408 4.43555,-8.40843 4.43555,-14.03907 0,-3.07814 -0.57512,-5.83301 -2.06055,-8.09765 -1.36368,-2.25107 -3.98177,-3.84961 -6.62304,-3.84961 -2.94887,0 -5.71621,1.53479 -7.69532,3.84375 l -0.0156,0.0176 -0.0137,0.0176 c -5.71244,6.85493 -10.27418,11.84162 -13.53125,14.85743 -3.18718,2.95108 -5.61964,3.91992 -6.39258,3.91992 -1.5037,0 -1.6709,-0.13283 -2.22656,-1.24414 -0.65426,-1.30852 -1.18555,-3.80748 -1.18555,-7.35352 0,-4.31362 1.4766,-13.90187 4.53125,-27.90234 l 0.004,-0.0137 0.002,-0.0156 c 2.44438,-11.707305 3.71875,-18.909472 3.71875,-22.947267 0,-3.002772 -1.44321,-5.995994 -3.92188,-7.648438 -2.47866,-1.652443 -5.54628,-2.1875 -9.17773,-2.1875 z m 0,6.615234 c 2.89655,0 4.72443,0.552616 5.50977,1.076172 0.78533,0.523557 0.97461,0.795303 0.97461,2.144532 0,2.362204 -1.15851,10.007022 -3.57813,21.595704 -3.08436,14.14021 -4.67773,23.61748 -4.67773,29.2832 0,4.13397 0.49102,7.52501 1.88476,10.3125 1.49234,2.98469 4.78227,4.90039 8.14258,4.90039 3.83506,0 7.16189,-2.23272 10.88672,-5.68164 3.64797,-3.37775 8.29577,-8.49261 14.08789,-15.4414 1.09289,-1.27505 1.7827,-1.53321 2.67383,-1.53321 0.64643,0 0.53538,-0.10424 0.98242,0.66211 l 0.0508,0.0859 0.0547,0.082 c 0.53011,0.79517 0.98047,2.2339 0.98047,4.50195 0,4.59638 -1.0598,7.67656 -2.84375,9.74219 l -0.0293,0.0332 -0.0273,0.0352 c -12.37481,15.12477 -23.50394,22.01953 -32.96094,22.01953 -7.53063,0 -12.21251,-2.35629 -15.45508,-7.3164 -3.26384,-5.19093 -5.04492,-12.34031 -5.04492,-21.63282 0,-5.48204 0.67962,-12.69537 2.0664,-21.52929 9.3e-4,-0.005 0.003,-0.0102 0.004,-0.0156 1.51619,-8.96729 3.40551,-17.28274 5.66602,-24.943358 l 0.006,-0.02148 0.006,-0.01953 c 1.05152,-3.738748 2.43803,-5.919957 3.49023,-6.761718 0.99621,-0.796972 3.32725,-1.578126 7.15039,-1.578126 z m 5.95117,-49.238281 c -5.89271,0 -11.20709,1.813928 -15.39648,5.404297 -4.08162,3.480518 -6.3418,8.319371 -6.3418,13.646484 0,5.141418 1.67295,9.730651 5.05859,12.955079 l 0.0312,0.0293 0.0312,0.02734 c 3.50137,3.167901 8.43977,4.503907 14.31446,4.503907 6.09363,0 11.43379,-1.702624 15.43945,-5.246094 l 0.0254,-0.02344 0.0254,-0.02344 c 4.00086,-3.693102 6.05664,-8.882215 6.05664,-14.71875 0,-4.992313 -1.96909,-9.487959 -5.68554,-12.396485 -3.62181,-2.834453 -8.28631,-4.158203 -13.5586,-4.158203 z m 0,6.613281 c 4.19972,0 7.21623,0.98036 9.48242,2.753907 2.17155,1.699474 3.14649,3.731813 3.14649,7.1875 0,4.389458 -1.26832,7.385415 -3.90625,9.832031 -2.64687,2.328306 -6.12858,3.564453 -11.02539,3.564453 -4.84744,0 -7.95754,-1.087227 -9.83594,-2.765625 -1.97244,-1.891993 -2.98438,-4.333574 -2.98438,-8.134766 0,-3.629606 1.19586,-6.212126 4.02149,-8.61914 l 0.002,-0.002 0.004,-0.0039 c 2.97842,-2.552934 6.49299,-3.8125 11.0957,-3.8125 z m 59.56641,36.009766 c -5.1441,0 -9.51999,0.953789 -12.95117,3.234375 -3.30394,2.153561 -5.59609,5.611477 -6.91016,9.845703 -4.83856,15.306654 -7.25391,31.456864 -7.25391,48.404294 0,11.45191 0.89184,19.86977 3.0918,25.73633 l 0.0117,0.0332 0.0137,0.0332 c 2.38329,5.95822 7.41507,9.75976 13.43945,9.75976 4.53159,0 8.53029,-1.2406 11.11914,-4.1914 l 0.002,-0.004 c 2.65338,-3.00899 4.26713,-7.46629 5.73047,-13.71875 1.87473,-7.61514 4.30716,-14.8426 7.2929,-21.6875 3.1379,-6.89958 6.1335,-12.36499 8.9004,-16.33594 0,-0.002 0,-0.004 0,-0.006 1.2164,-1.72145 2.1794,-2.79121 3.0254,-3.65625 -0.1918,2.86767 -0.8446,7.49521 -2.2578,14.34375 v 0.0195 0.0176 c -1.8074,9.29485 -2.7481,15.69685 -2.7481,19.83203 0,7.67982 1.8039,14.06813 5.7989,18.67774 l 0.019,0.0215 0.018,0.0195 c 4.0454,4.51223 10.0912,6.66797 17.2461,6.66797 8.6509,0 16.5579,-2.38373 23.3711,-7.10547 6.6747,-4.5401 12.8436,-10.3231 18.5098,-17.29687 3.0659,-3.56419 4.4356,-8.40974 4.4356,-14.04102 0,-3.07814 -0.5752,-5.83301 -2.0606,-8.09765 -1.3638,-2.25107 -3.9818,-3.84961 -6.6231,-3.84961 -2.9489,0 -5.7162,1.53479 -7.6953,3.84375 l -0.014,0.0156 -0.012,0.0137 c -5.8315,6.97246 -10.5131,12.01246 -13.8693,15.00977 -3.1529,2.80262 -5.5889,3.77344 -6.8261,3.77344 -1.0958,0 -1.185,-0.12293 -1.4981,-0.55469 -0.313,-0.43176 -0.7637,-1.65797 -0.7637,-3.81836 0,-2.83597 1.1561,-10.31125 3.5724,-21.375 v -0.004 -0.004 c 2.8342,-13.14092 4.2988,-22.155694 4.2988,-27.769532 0,-4.711182 -1.2304,-8.837778 -4.0899,-11.697266 -2.8594,-2.859488 -6.9861,-4.089844 -11.6972,-4.089844 -4.9923,0 -10.2035,1.717524 -15.6642,4.857422 l -0.016,0.0078 -0.018,0.0098 c -5.5307,3.261686 -10.8958,8.498704 -16.31244,15.632813 -1.51514,1.995557 -2.97141,4.175787 -4.39062,6.472657 0.3624,-1.53355 0.58337,-2.70942 1.00195,-4.38477 l 0.0137,-0.0547 c 1.92897,-7.204088 2.97852,-11.552997 2.97852,-14.624994 0,-2.421922 -0.88947,-5.077888 -3.08985,-6.453125 -2.07433,-1.296462 -4.29331,-1.462891 -7.1289,-1.462891 z m 0,6.615234 c 2.28441,0 3.64938,0.473493 3.62304,0.457032 -0.15237,-0.09524 -0.0176,-0.318329 -0.0176,0.84375 0,1.014535 -0.86795,5.876786 -2.76758,12.96875 l -0.008,0.02539 -0.006,0.02734 c -1.28944,5.157746 -2.32557,9.684466 -3.10742,13.593756 -0.80127,4.0063 -1.44939,8.84365 -1.96876,14.55664 l 6.38086,1.48437 c 4.14283,-10.79646 8.75881,-19.48553 13.75388,-26.06445 5.0737,-6.682447 9.9413,-11.297966 14.3906,-13.925785 4.7721,-2.741213 8.9,-3.966797 12.3516,-3.966797 3.6088,0 5.721,0.849879 7.0215,2.150391 1.3005,1.300512 2.1504,3.412666 2.1504,7.021485 0,4.370145 -1.3508,13.403916 -4.1485,26.375006 -2.4464,11.20285 -3.7226,18.44653 -3.7226,22.77734 0,2.95961 0.4785,5.57293 2.0214,7.70117 1.543,2.12825 4.2373,3.28711 6.8536,3.28711 3.8828,0 7.4616,-2.10198 11.2207,-5.44336 v -0.004 -0.002 c 3.8052,-3.39746 8.5879,-8.58814 14.5156,-15.67382 1.0929,-1.27505 1.7827,-1.53321 2.6739,-1.53321 0.6464,0 0.5354,-0.10424 0.9824,0.66211 l 0.051,0.0859 0.055,0.082 c 0.5301,0.79517 0.9804,2.2339 0.9804,4.50195 0,4.59638 -1.0598,7.67656 -2.8437,9.74219 l -0.033,0.0391 -0.031,0.0391 c -5.3268,6.56566 -11.0446,11.90215 -17.1484,16.05273 l -0.012,0.01 -0.014,0.008 c -5.7266,3.97356 -12.1501,5.93945 -19.6191,5.93945 -5.8893,0 -9.6926,-1.55266 -12.3028,-4.45312 -2.6489,-3.07044 -4.166,-7.68044 -4.166,-14.32032 0,-3.02796 0.8502,-9.41746 2.6211,-18.53125 l 0.01,-0.0371 c 1.6749,-8.12168 2.5566,-13.67336 2.5566,-17.33593 0,-1.40294 -0.1743,-2.81758 -1.1094,-4.17774 -0.9351,-1.36015 -2.8028,-2.20117 -4.3086,-2.20117 -2.2735,0 -3.7935,1.15477 -5.2617,2.50391 -1.4682,1.34913 -2.9278,3.13291 -4.5449,5.42383 l -0.01,0.008 v 0.008 c -3.1154,4.46993 -6.25859,10.257 -9.5136,17.41797 l -0.0117,0.0234 -0.01,0.0234 c -3.15024,7.21929 -5.70535,14.82334 -7.66797,22.80469 l -0.004,0.0176 -0.006,0.0195 c -1.35215,5.77738 -3.06502,9.51054 -4.25,10.85352 l -0.006,0.004 -0.004,0.006 c -0.99543,1.13763 -2.75136,1.94336 -6.1504,1.94336 -3.69013,0 -5.57158,-1.31779 -7.27929,-5.5625 -1.63508,-4.37829 -2.66211,-12.32983 -2.66211,-23.38672 0,-16.32625 2.31939,-31.78748 6.94922,-46.427735 l 0.004,-0.0078 0.002,-0.0098 c 0.98792,-3.183303 2.40302,-5.09634 4.21093,-6.271485 l 0.0176,-0.0098 0.0156,-0.0098 c 1.94212,-1.294752 4.98189,-2.132813 9.30078,-2.132813 z m 129.06442,97.749998 -7.5215,6.44727 c -10.0054,8.57613 -17.3155,16.36034 -21.9433,23.57422 -4.5562,7.10225 -7.0527,13.58361 -7.0527,19.64062 0,2.56507 0.4456,4.9242 1.5566,6.96094 l 0.053,0.0977 0.061,0.0937 c 1.4704,2.31066 4.2852,3.64257 7.0136,3.64257 2.9229,0 5.3789,-1.65077 7.5059,-3.92968 2.1243,-2.27601 4.1114,-5.37162 6.1758,-9.36524 4.3662,-8.19598 8.2707,-20.58915 12.0117,-37.48828 z m -11.1972,19.03125 c -2.8908,11.11302 -5.8699,19.54377 -8.8028,25.04297 l -0.01,0.0195 -0.01,0.0195 c -1.9008,3.67896 -3.6875,6.33931 -5.1445,7.90039 -1.457,1.56109 -2.3928,1.83008 -2.67,1.83008 -1.01,0 -1.1076,-0.10174 -1.3574,-0.49219 -0.4035,-0.78226 -0.7109,-1.9636 -0.7109,-3.68945 0,-4.18299 1.8561,-9.60456 6.0039,-16.07031 2.77,-4.31796 7.3292,-9.30174 12.7012,-14.56055 z m 23.6523,-106.021482 -4.082,0.09766 c -6.0526,0.147623 -11.7459,2.590766 -16.6895,6.964842 -4.9082,4.21538 -8.7777,9.79182 -11.623,16.5664 -2.8587,6.80641 -4.2891,14.04948 -4.2891,21.63086 0,4.39472 0.7971,8.11064 3.0274,10.89844 l 0.041,0.0508 0.043,0.0488 c 2.2687,2.61773 5.6512,4.02148 9.2188,4.02148 4.286,0 8.058,-2.65159 11.0937,-6.69921 3.1416,-4.18873 5.1644,-9.79568 6.3731,-16.7793 z m -8.1094,7.378902 -5.291,28.27149 v 0.0215 c -1.0953,6.32838 -2.912,10.96213 -5.1465,13.94141 -2.3403,3.12038 -4.2007,4.05273 -5.8027,4.05273 -2.0288,0 -3.1176,-0.51607 -4.1602,-1.69336 -0.83,-1.06511 -1.5566,-3.21081 -1.5566,-6.71289 0,-6.75461 1.2581,-13.07671 3.7754,-19.07031 2.5254,-6.01295 5.8146,-10.66702 9.8535,-14.1289 l 0.021,-0.0176 0.02,-0.0195 c 2.7126,-2.40259 5.4429,-3.86995 8.291,-4.64454 z m 1.8047,-25.136714 c -9.5319,0 -18.6526,3.087447 -27.0586,9.050781 0,0.0014 0,0.0026 -0.01,0.0039 -8e-4,5.31e-4 0,0.0014 0,0.002 -8.2526,5.819432 -14.8851,13.625693 -19.834,23.250003 -4.9712,9.53942 -7.4785,19.76968 -7.4785,30.51953 0,9.90273 2.5623,18.31823 7.8555,24.75586 5.3115,6.45996 12.8264,9.84765 21.5625,9.84765 1.767,0 3.5254,-0.28573 5.2734,-0.68359 -14.0988,11.63841 -24.3649,21.81911 -30.457,30.63086 l -0.01,0.008 v 0.008 c -7.4187,10.86309 -11.3281,21.28472 -11.3281,31.24219 0,7.20942 2.3973,13.50075 7.1309,18.09766 4.7152,4.70528 11.0453,7.09765 18.2558,7.09765 13.5322,0 24.7543,-8.78426 32.8789,-24.61718 v -0.01 c 8.0241,-15.27492 14.3623,-35.93358 19.2285,-61.93359 l 11.1993,-7.52344 0.025,-0.0176 c 5.0837,-3.55862 13.14,-9.05821 24.1308,-16.4707 v -0.002 c 2.2711,-1.51475 4.1019,-3.37832 5.2969,-5.59766 1.282,-2.38082 1.7383,-5.20097 1.7383,-8.48047 0,-2.85181 -0.6183,-5.48699 -2.041,-7.67383 -1.3327,-2.33362 -3.9377,-4.08008 -6.6407,-4.08008 -2.1619,0 -4.164,0.80303 -6.1504,2.02539 l -0.033,0.0215 -0.031,0.0195 c -7.1381,4.6247 -14.5673,9.95373 -22.1524,15.65625 0.1708,-1.15838 0.3766,-2.45431 0.5352,-3.56445 7e-4,-0.005 0,-0.0108 0,-0.0156 0.6338,-3.67703 1.2063,-7.04857 1.7148,-10.09961 2.6867,-16.12004 4.2775,-26.09159 4.8125,-30.232418 0.1644,-1.155596 0.2246,-2.480274 0.2246,-4.103516 0,-3.318626 -0.902,-6.511413 -3.543,-8.267578 -2.2988,-1.74373 -5.1337,-2.144531 -8.5957,-2.144531 -2.2444,0 -4.1185,0.311484 -6.0683,0.558593 -0.5698,-1.703406 -1.2821,-3.230239 -2.4414,-4.435547 -1.9298,-2.309792 -4.8228,-2.841796 -8.002,-2.841796 z m 0,6.613281 c 2.3651,0 3.0918,0.62448 2.9571,0.451172 l 0.1269,0.162109 0.1445,0.146484 c 0.1958,0.195795 1.0366,1.625514 1.6114,4.154297 l 0.7207,3.173829 3.1836,-0.669922 c 2.1458,-0.451762 4.7439,-0.697266 7.7675,-0.697266 2.8473,0 4.4241,0.626352 4.6543,0.810547 l 0.1387,0.111328 0.1524,0.09766 c 0.084,0.05351 0.58,0.512525 0.58,2.777344 0,1.444136 -0.07,2.545595 -0.1601,3.179687 v 0.02344 0.02148 c -0.4908,3.803494 -2.0949,13.905234 -4.7812,30.023434 -0.5108,3.06465 -1.0855,6.45122 -1.7246,10.1582 l -0.01,0.0469 -0.01,0.0469 c -0.5096,3.56763 -1.0826,7.39302 -1.7207,11.47656 l -1.291,8.2539 6.5899,-5.13476 c 9.7711,-7.61385 19.1479,-14.32659 28.1269,-20.14649 1.3339,-0.81821 2.2772,-1.04297 2.6738,-1.04297 0.5617,0 0.4369,-0.15375 0.9278,0.75782 l 0.074,0.13672 0.086,0.1289 c 0.5772,0.86573 0.9805,2.14934 0.9805,4.11719 0,2.6085 -0.4392,4.39852 -0.9492,5.3457 -0.5963,1.10747 -1.5793,2.18566 -3.1465,3.23047 l -0.01,0.006 -0.01,0.006 c -11.0155,7.42904 -19.0869,12.93563 -24.2402,16.54297 l -13.3926,8.99805 -0.2519,1.37109 c -4.8265,26.2916 -11.18,46.81359 -18.875,61.45898 l -0.01,0.0137 -0.01,0.0156 c -7.4901,14.61182 -16.2286,21.04883 -27.0078,21.04883 -5.8363,0 -10.1228,-1.69898 -13.5976,-5.17383 l -0.02,-0.0195 -0.018,-0.0176 c -3.4451,-3.33738 -5.1387,-7.53282 -5.1387,-13.36914 0,-8.21417 3.2562,-17.37358 10.166,-27.49609 v -0.002 c 6.7928,-9.82443 20.0422,-22.53452 39.6191,-37.66211 l 1.0449,-0.80664 1.3535,-8.79492 -6.0664,-2.26367 c -1.8825,2.9899 -4.2937,5.23609 -7.3847,6.89649 -3.0488,1.57746 -5.9481,2.31054 -8.8262,2.31054 -7.1359,0 -12.2927,-2.37355 -16.4531,-7.43359 -4.1789,-5.08237 -6.3516,-11.77137 -6.3516,-20.55664 0,-9.73016 2.2297,-18.82632 6.7305,-27.46289 v -0.01 -0.008 c 4.5206,-8.7969 10.4263,-15.704062 17.7812,-20.888671 v -0.002 -0.0039 c 7.4638,-5.296891 15.1093,-7.837891 23.2383,-7.837891 z" />
          <g
             style="font-style:normal;font-variant:normal;font-weight:normal;font-stretch:normal;font-size:192px;line-height:1.25;font-family:Pacifico;-inkscape-font-specification:Pacifico;letter-spacing:0px;word-spacing:0px;fill:none;fill-opacity:1;stroke:#000000;stroke-width:3.96850399;stroke-miterlimit:4;stroke-dasharray:none"
             id="text4932"
             transform="translate(0,-7.7881896e-5)" />
        </g>
      </g>
    </g>
  </g>
</svg>
