<?xml version="1.0" encoding="UTF-8" standalone="no"?>
<!-- Created with Inkscape (http://www.inkscape.org/) -->

<svg
   xmlns:dc="http://purl.org/dc/elements/1.1/"
   xmlns:cc="http://creativecommons.org/ns#"
   xmlns:rdf="http://www.w3.org/1999/02/22-rdf-syntax-ns#"
   xmlns:svg="http://www.w3.org/2000/svg"
   xmlns="http://www.w3.org/2000/svg"
   xmlns:sodipodi="http://sodipodi.sourceforge.net/DTD/sodipodi-0.dtd"
   xmlns:inkscape="http://www.inkscape.org/namespaces/inkscape"
   width="297.78378mm"
   height="69.3274mm"
   viewBox="0 0 297.78379 69.3274"
   version="1.1"
   id="svg8"
   inkscape:version="0.92.1 r15371"
   sodipodi:docname="logo.svg">
  <defs
     id="defs2" />
  <sodipodi:namedview
     id="base"
     pagecolor="#ffffff"
     bordercolor="#666666"
     borderopacity="1.0"
     inkscape:pageopacity="0.0"
     inkscape:pageshadow="2"
     inkscape:zoom="0.35"
     inkscape:cx="55.804107"
     inkscape:cy="-253.50379"
     inkscape:document-units="mm"
     inkscape:current-layer="flowRoot4900"
     showgrid="false"
     inkscape:pagecheckerboard="true"
     fit-margin-top="0"
     fit-margin-left="0"
     fit-margin-right="0"
     fit-margin-bottom="0"
     inkscape:window-width="1280"
     inkscape:window-height="748"
     inkscape:window-x="-8"
     inkscape:window-y="-8"
     inkscape:window-maximized="1" />
  <metadata
     id="metadata5">
    <rdf:RDF>
      <cc:Work
         rdf:about="">
        <dc:format>image/svg+xml</dc:format>
        <dc:type
           rdf:resource="http://purl.org/dc/dcmitype/StillImage" />
        <dc:title></dc:title>
      </cc:Work>
    </rdf:RDF>
  </metadata>
  <g
     inkscape:label="Layer 1"
     inkscape:groupmode="layer"
     id="layer1"
     transform="translate(37.065431,-12.433056)">
    <g
       aria-label="YoyoString"
       transform="scale(0.26458333)"
       style="font-style:normal;font-variant:normal;font-weight:normal;font-stretch:normal;font-size:192px;line-height:258.20001221px;font-family:Pacifico;-inkscape-font-specification:Pacifico;text-align:center;letter-spacing:0px;word-spacing:0px;writing-mode:lr-tb;text-orientation:upright;text-anchor:middle;fill:#000000;fill-opacity:1;stroke:#000000"
       id="flowRoot3680">
      <g
         id="g3719">
        <g
           aria-label="YoyoString"
           transform="translate(-194.90587,47.115364)"
           style="font-style:normal;font-variant:normal;font-weight:normal;font-stretch:normal;font-size:192px;line-height:1.25;font-family:Pacifico;-inkscape-font-specification:Pacifico;letter-spacing:0px;word-spacing:0px;fill:none;fill-opacity:1;stroke:#000000;stroke-width:6.61417341;stroke-miterlimit:4;stroke-dasharray:none"
           id="flowRoot4900">
          <path
             id="path4926"
             style="letter-spacing:15.58002663px;fill:none;stroke:#000000;stroke-width:6.61417341;stroke-miterlimit:4;stroke-dasharray:none"
             d="m 1171.3977,128.58412 q 2.496,0 3.84,2.496 1.536,2.304 1.536,5.952 0,4.416 -1.344,6.912 -1.344,2.496 -4.224,4.416 -16.512,11.136 -24.192,16.512 l -12.288,8.256 q -7.296,39.744 -19.2,62.4 -11.712,22.848 -29.952,22.848 -9.792,0 -15.936,-6.144 -6.144,-5.952 -6.144,-15.744 0,-13.632 10.752,-29.376 10.752,-15.552 40.32,-38.4 l 1.152,-7.488 q -3.264,5.184 -8.64,8.064 -5.184,2.688 -10.368,2.688 -11.904,0 -19.008,-8.64 -7.104,-8.64 -7.104,-22.656 0,-15.36 7.104,-28.992 7.104,-13.823997 18.816,-22.079997 11.904,-8.448 25.152,-8.448 4.224,0 5.568,1.728 1.536,1.536 2.496,5.76 3.648,-0.768 8.448,-0.768 4.8,0 6.72,1.536 2.112,1.344 2.112,5.568 0,2.304 -0.192,3.648 -0.768,5.951997 -4.8,30.143997 -0.768,4.608 -1.728,10.176 -0.768,5.376 -1.728,11.52 14.784,-11.52 28.416,-20.352 2.496,-1.536 4.416,-1.536 z m -67.776,24 q 4.416,0 8.448,-5.376 4.032,-5.376 5.76,-15.36 l 6.144,-32.831997 q -7.872,0.192 -14.592,6.143997 -6.72,5.76 -10.752,15.36 -4.032,9.6 -4.032,20.352 0,5.952 2.304,8.832 2.496,2.88 6.72,2.88 z m -15.936,87.168 q 4.8,0 10.752,-11.52 6.144,-11.52 11.712,-36.672 -14.784,12.672 -21.312,22.848 -6.528,10.176 -6.528,17.856 0,3.264 1.152,5.376 1.344,2.112 4.224,2.112 z m -111.79004,-67.776 q -7.296,0 -10.368,-7.68 -2.88,-7.68 -2.88,-24.576 0,-24.96 7.104,-47.423997 1.728,-5.568 5.568,-8.064 4.032,-2.688 11.136,-2.688 3.84,0 5.376,0.96 1.536,0.96 1.536,3.648 0,3.072 -2.88,13.824 -1.92,7.679997 -3.072,13.439997 -1.152,5.76 -1.92,14.208 6.336,-16.512 14.208,-26.88 7.87204,-10.367997 15.36004,-14.783997 7.68,-4.416 14.016,-4.416 12.48,0 12.48,12.48 0,7.487997 -4.224,27.071997 -3.648,16.704 -3.648,22.08 0,7.68 5.568,7.68 3.84,0 9.024,-4.608 5.376,-4.8 14.208,-15.36 2.304,-2.688 5.184,-2.688 2.496,0 3.84,2.304 1.536,2.304 1.536,6.336 0,7.68 -3.648,11.904 -8.256,10.176 -17.856,16.704 -9.408,6.528 -21.504,6.528 -9.792,0 -14.784,-5.568 -4.992,-5.76 -4.992,-16.512 0,-5.376 2.688,-19.2 2.496,-12.096 2.496,-16.704 0,-3.072 -2.112,-3.072 -2.496,0 -7.104,6.528 -4.416,6.336 -9.21604,16.896 -4.608,10.56 -7.488,22.272 -2.112,9.024 -4.992,12.288 -2.688,3.072 -8.64,3.072 z M 924.58564,68.872123 q -8.064,0 -12.096,-3.648 -4.032,-3.84 -4.032,-10.56 0,-6.72 5.184,-11.136 5.376,-4.608 13.248,-4.608 7.104,0 11.52,3.456 4.416,3.456 4.416,9.792 0,7.68 -4.992,12.288 -4.992,4.416 -13.248,4.416 z m -1.536,103.103997 q -12.48,0 -18.24,-8.832 -5.568,-8.832 -5.568,-23.424 0,-8.64 2.112,-22.08 2.304,-13.632 5.76,-25.343997 1.728,-6.144 4.608,-8.448 2.88,-2.304 9.216,-2.304 9.792,0 9.792,6.528 0,4.8 -3.648,22.271997 -4.608,21.12 -4.608,28.608 0,5.76 1.536,8.832 1.536,3.072 5.184,3.072 3.456,0 8.64,-4.8 5.184,-4.8 13.824,-15.168 2.304,-2.688 5.184,-2.688 2.496,0 3.84,2.304 1.536,2.304 1.536,6.336 0,7.68 -3.648,11.904 -19.008,23.232 -35.52,23.232 z m -112.93902,0 q -7.296,0 -10.368,-7.68 -2.88,-7.68 -2.88,-24.576 0,-24.96 7.104,-47.423997 1.728,-5.568 5.568,-8.064 4.032,-2.688 11.136,-2.688 3.84,0 5.376,0.96 1.536,0.96 1.536,3.648 0,3.072 -2.88,13.824 -1.92,7.679997 -3.072,13.439997 -1.152,5.76 -1.92,14.208 6.336,-16.512 14.208,-26.88 7.872,-10.367997 15.36,-14.783997 7.68,-4.416 14.016,-4.416 12.48,0 12.48,12.48 0,2.496 -1.728,12.095997 -1.536,7.68 -1.536,9.6 0,6.72 4.8,6.72 5.376,0 13.824,-8.448 2.496,-2.496 5.184,-2.496 2.496,0 3.84,2.304 1.536,2.112 1.536,5.76 0,7.104 -3.84,11.136 -5.376,5.568 -12.672,9.6 -7.104,3.84 -15.168,3.84 -10.176,0 -15.552,-5.184 -5.184,-5.184 -5.184,-14.016 0,-2.88 0.576,-5.76 0.384,-3.84 0.384,-5.184 0,-3.072 -2.112,-3.072 -2.88,0 -7.68,6.528 -4.608,6.336 -9.216,16.896 -4.608,10.56 -7.488,22.272 -2.112,9.024 -4.992,12.288 -2.688,3.072 -8.64,3.072 z m -18.95502,-43.776 q 2.496,0 3.84,2.304 1.536,2.304 1.536,6.336 0,7.68 -3.648,11.904 -8.256,10.176 -18.048,16.704 -9.792,6.528 -22.464,6.528 -39.168,0 -39.168,-55.104 0,-8.448 0.576,-17.087997 h -7.488 q -5.76,0 -7.872,-2.112 -1.92,-2.112 -1.92,-6.72 0,-10.752 8.64,-10.752 h 10.944 q 3.264,-21.12 9.984,-38.592 6.72,-17.472 16.128,-27.84 9.6,-10.3679997 20.544,-10.3679997 8.064,0 12.672,7.1039997 4.608,7.104 4.608,17.856 0,29.76 -24.96,51.84 h 21.504 q 3.072,0 4.416,1.344 1.344,1.344 1.344,4.992 0,13.248 -21.696,13.248 h -23.424 q -0.384,9.599997 -0.384,14.975997 0,19.968 4.608,28.032 4.8,8.064 14.976,8.064 8.256,0 14.592,-4.992 6.336,-4.992 14.976,-14.976 2.304,-2.688 5.184,-2.688 z m -33.6,-106.367997 q -2.88,0 -6.528,7.296 -3.456,7.104 -6.72,19.968 -3.072,12.672 -5.184,28.224 11.328,-9.792 16.896,-21.888 5.76,-12.288 5.76,-22.272 0,-11.328 -4.224,-11.328 z M 612.26156,172.55212 q -25.536,0 -40.896,-9.6 -15.36,-9.792 -15.36,-29.76 0,-10.56 3.648,-16.128 3.648,-5.568 10.752,-5.568 5.184,0 8.448,2.688 3.264,2.688 3.264,6.912 0,3.84 -0.576,6.72 0,0.768 -0.384,2.688 -0.192,1.92 -0.192,4.032 0,8.64 8.64,12.864 8.832,4.224 24.576,4.224 16.32,0 25.536,-5.76 9.216,-5.952 9.216,-16.512 0,-6.528 -4.224,-11.136 -4.224,-4.8 -10.56,-7.872 -6.336,-3.264 -17.856,-7.872 -14.784,-5.759997 -24.192,-10.943997 -9.216,-5.184 -15.936,-14.016 -6.528,-9.024 -6.528,-22.272 0,-13.824 7.296,-24.576 7.488,-10.752 21.312,-16.704 14.016,-5.9519997 32.832,-5.9519997 14.016,0 25.728,4.2239997 11.712,4.032 18.624,12.48 7.104,8.448 7.104,20.736 0,12.096 -3.648,18.24 -3.648,6.144 -10.752,6.144 -4.992,0 -8.448,-3.072 -3.264,-3.072 -3.264,-7.296 0,-3.648 0.576,-6.72 0.576,-5.76 0.576,-7.296 0,-8.064 -7.872,-12.288 -7.872,-4.224 -19.584,-4.224 -16.512,0 -25.344,6.144 -8.64,5.952 -8.64,16.896 0,7.296 4.416,12.48 4.608,5.184 11.328,8.64 6.72,3.456 18.816,8.256 14.592,5.952 23.424,10.752 8.832,4.8 14.976,13.055997 6.336,8.256 6.336,20.352 0,22.656 -17.28,34.944 -17.088,12.096 -45.888,12.096 z m -57.85302,-60.48 q 2.496,0 3.84,2.496 1.344,2.496 1.344,6.336 0,9.216 -5.568,10.944 -11.52,4.032 -25.344,4.608 -3.648,16.128 -14.4,25.92 -10.752,9.6 -24.384,9.6 -11.52,0 -19.776,-5.568 -8.064,-5.568 -12.288,-14.784 -4.224,-9.216 -4.224,-19.968 0,-14.592 5.568,-25.92 5.568,-11.519997 15.36,-17.855997 9.792,-6.528 21.696,-6.528 14.592,0 23.424,10.176 9.024,9.983997 10.56,24.767997 9.024,-0.576 21.504,-3.84 1.536,-0.384 2.688,-0.384 z m -62.976,39.552 q 6.144,0 10.56,-4.992 4.608,-4.992 6.144,-14.4 -5.952,-4.032 -9.216,-10.56 -3.072,-6.528 -3.072,-13.824 0,-3.072 0.576,-6.144 h -0.96 q -7.68,0 -12.864,7.488 -4.992,7.296 -4.992,20.736 0,10.56 4.032,16.128 4.224,5.568 9.792,5.568 z m -44.09502,-23.04 q 2.496,0 3.84,2.496 1.536,2.304 1.536,5.952 0,4.416 -1.344,6.912 -1.344,2.496 -4.224,4.416 l -36.864,24.768 q -7.296,39.744 -19.2,62.4 -11.712,22.848 -29.952,22.848 -9.792,0 -15.936,-6.144 -6.144,-5.952 -6.144,-15.744 0,-9.024 4.032,-18.432 4.224,-9.408 15.36,-21.696 11.328,-12.096 31.872,-27.84 l 0.576,-4.416 q 1.344,-7.104 3.072,-20.352 -3.84,13.824 -10.752,21.12 -6.912,7.104 -14.592,7.104 -8.64,0 -14.208,-7.872 -5.376,-8.064 -5.376,-19.968 0,-14.4 1.92,-26.304 1.92,-12.096 6.336,-25.535997 1.92,-5.76 5.376,-8.256 3.456,-2.496 10.944,-2.496 4.224,0 5.76,1.344 1.728,1.344 1.728,4.032 0,1.536 -2.112,10.368 -1.92,7.103997 -3.072,12.863997 -1.536,7.872 -2.688,15.168 -1.152,7.104 -1.152,11.712 0,7.296 4.032,7.296 2.88,0 7.104,-5.76 4.416,-5.76 9.216,-17.472 4.992,-11.712 9.6,-28.799997 1.536,-5.76 4.608,-8.256 3.264,-2.496 9.6,-2.496 4.416,0 6.144,1.152 1.728,1.152 1.728,3.84 0,4.8 -4.992,33.023997 l -4.992,30.912 q 14.784,-11.136 28.8,-20.352 2.496,-1.536 4.416,-1.536 z m -84.096,111.168 q 4.8,0 10.752,-11.136 5.952,-11.136 11.904,-37.056 -14.784,12.48 -21.504,22.656 -6.528,10.368 -6.528,18.048 0,3.264 1.152,5.376 1.344,2.112 4.224,2.112 z m -18.49303,-127.68 q 2.496,0 3.84,2.496 1.344,2.496 1.344,6.336 0,9.216 -5.568,10.944 -11.52,4.032 -25.344,4.608 -3.648,16.128 -14.4,25.92 -10.752,9.6 -24.384,9.6 -11.52,0 -19.776,-5.568 -8.064,-5.568 -12.288,-14.784 -4.224,-9.216 -4.224,-19.968 0,-14.592 5.568,-25.92 5.568,-11.519997 15.36,-17.855997 9.792,-6.528 21.696,-6.528 14.592,0 23.424,10.176 9.024,9.983997 10.56,24.767997 9.024,-0.576 21.504,-3.84 1.536,-0.384 2.688,-0.384 z m -62.976,39.552 q 6.144,0 10.56,-4.992 4.608,-4.992 6.144,-14.4 -5.952,-4.032 -9.216,-10.56 -3.072,-6.528 -3.072,-13.824 0,-3.072 0.576,-6.144 h -0.96 q -7.68,0 -12.864,7.488 -4.992,7.296 -4.992,20.736 0,10.56 4.032,16.128 4.224,5.568 9.792,5.568 z m -48.90403,-23.616 q 1.152,-0.384 3.456,-0.384 6.528,0 6.528,8.448 0,4.608 -2.112,7.872 -1.92,3.072 -6.144,3.84 -17.472,3.264 -34.368,7.296 l -0.576,4.608 q -5.376,37.824 -21.504,55.872 -15.936,18.24 -39.936,18.24 -15.936,0 -24.768,-7.872 -8.64,-7.68 -8.64,-19.776 0,-20.16 18.048,-35.904 18.048,-15.744 54.72,-27.84 l 3.84,-27.072 q 0.768,-4.608 1.92,-12.288 -9.024,23.808 -23.04,35.52 -14.016,11.712 -31.296,11.712 -16.512,0 -25.152,-9.984 -8.640002,-10.176 -8.640002,-26.112 0,-7.104 1.536,-15.551997 1.536,-8.64 4.800002,-23.232 2.88,-13.248 4.224,-21.12 1.536,-7.872 1.536,-14.016 0,-9.216 -7.104,-9.216 -5.568002,0 -13.248002,5.568 -7.488,5.376 -15.936,16.704 -2.688,3.648 -5.952,3.648 -2.688,0 -4.8,-2.496 -1.92,-2.688 -1.92,-5.952 0,-5.952 5.376,-13.44 19.584,-26.8799997 45.888002,-26.8799997 11.712,0 18.24,7.1039997 6.72,7.104 6.72,20.928 0,9.984 -1.92,20.544 -1.728,10.368 -5.376,26.496 -2.304,9.6 -3.456,15.552 -1.152,5.759997 -1.152,9.599997 0,9.792 3.456,14.016 3.456,4.224 12.096,4.224 10.368,0 21.12,-11.328 10.944,-11.52 19.584,-34.751997 8.832,-23.232 12.672,-56.832 0.96,-8.448 4.416,-11.904 3.456,-3.6479997 9.984,-3.6479997 13.44,0 13.44,13.4399997 0,2.304 -0.192,3.648 -4.032,28.608 -7.488,51.648 -1.92,13.824 -4.224,28.415997 -2.112,14.592 -4.224,29.568 14.016,-3.84 29.568,-6.912 z m -58.176,34.56 q -46.464,16.128 -46.464,39.168 0,5.376 3.264,8.832 3.456,3.648 9.6,3.648 26.688,0 33.408,-50.304 z" />
          <text
             xml:space="preserve"
             style="font-style:normal;font-variant:normal;font-weight:normal;font-stretch:normal;font-size:192px;line-height:1.25;font-family:Pacifico;-inkscape-font-specification:Pacifico;letter-spacing:0px;word-spacing:0px;fill:#000000;fill-opacity:1;stroke:none"
             x="319.02048"
             y="136.45612"
             id="text4932"><tspan
               sodipodi:role="line"
               id="tspan4930"
               x="319.02048"
               y="302.92535" /></text>
        </g>
      </g>
    </g>
  </g>
</svg>
